# xmcd
#
# Track frame offsets:
#	150
#	14111
#	30313
#	47692
#	60525
#	70774
#	83491
#	101699
#	117498
#	128627
#
# Disc length: 1908 seconds
#
# Revision: 0
# Processed by: cddbd v1.5.1PL0 Copyright (c) Steve Scherf et al.
# Submitted via: dBpowerAMP V4.0
#
DISCID=7c07720a
DTITLE=Vern Gosdin - Very Best Of Vern Gosdin
DYEAR=1900
DGENRE=
TTITLE0=This Ain't My First Rodeo
TTITLE1=Do You Believe Me Now
TTITLE2=Chiseled In Stone
TTITLE3=Who You Gonna Blame It On This Time
TTITLE4=Right In The Wrong Direction
TTITLE5=I'm Still Crazy
TTITLE6=That Just About Does It Don't It
TTITLE7=If Your Gona Do Me Wrong (Do It Right)
TTITLE8=Set'Em Up Joe
TTITLE9=Today My World Slipped Away
EXTD=Vern Gosdin - Very Best Of Vern Gosdin
EXTT0=
EXTT1=
EXTT2=
EXTT3=
EXTT4=
EXTT5=
EXTT6=
EXTT7=
EXTT8=
EXTT9=
PLAYORDER=
